{"title":"Risen.2016.720p.HD.CAM-KOMPENSAM","uid":14013132,"size":2914088799,"categoryP":"video","categoryS":"movies","magnet":"?xt=urn:btih:0b5db4a0ff4406692d8b66d23ccd3ff96781d36a&amp;dn=Risen.2016.720p.HD.CAM-KOMPENSAM&amp;tr=udp%3A%2F%2Ftracker.leechers-paradise.org%3A6969&amp;tr=udp%3A%2F%2Fzer0day.ch%3A1337&amp;tr=udp%3A%2F%2Fopen.demonii.com%3A1337&amp;tr=udp%3A%2F%2Ftracker.coppersurfer.tk%3A6969&amp;tr=udp%3A%2F%2Fexodus.desync.com%3A6969","seeders":6,"leechers":3,"uploader":"Supernova","files":3,"time":1458845466,"description":"http://boltimg.com/image/sMPM\r\n \nhttp://www.imdb.com/title/tt3231054/\r\n\r\nFormat                                   : AVI\r\nFormat/Info                              : Audio Video Interleave\r\nFormat profile                           : OpenDML\r\nFile size                                : 2.71 GiB\r\nDuration                                 : 1h 39mn\r\nOverall bit rate mode                    : Variable\r\nOverall bit rate                         : 3 889 Kbps\r\nWriting library                          : VirtualDub build 30091/release\r\n\r\nVideo\r\nID                                       : 0\r\nFormat                                   : MPEG-4 Visual\r\nFormat profile                           : Advanced   \r\nFormat settings, BVOP                    : 2\r\nFormat settings, QPel                    : No\r\nFormat settings, GMC                     : No warppoints\r\nFormat settings, Matrix                  : Default (H.263)\r\nMuxing mode                              : Packed bitstream\r\nCodec ID                                 : XVID\r\nCodec ID/Hint                            : XviD\r\nDuration                                 : 1h 39mn\r\nBit rate                                 : 3 681 Kbps\r\nWidth                                    : 1 264 pixels\r\nHeight                                   : 448 pixels\r\nDisplay aspect ratio                     : 2.821\r\nFrame rate                               : 23.976 (24000/1001) fps\r\nColor space                              : YUV\r\nChroma subsampling                       : 4:2:0\r\nBit depth                                : 8 bits\r\nScan type                                : Progressive\r\nCompression mode                         : Lossy\r\nBits/(Pixel*Frame)                       : 0.271\r\nStream size                              : 2.57 GiB (95%)\r\nWriting library                          : XviD 67\r\n\r\nAudio\r\nID                                       : 1\r\nFormat                                   : MPEG Audio\r\nFormat version                           : Version 1\r\nFormat profile                           : Layer 3\r\nCodec ID                                 : 55\r\nCodec ID/Hint                            : MP3\r\nDuration                                 : 1h 39mn\r\nBit rate mode                            : Variable\r\nBit rate                                 : 192 Kbps\r\nChannel(s)                               : 2 channels\r\nSampling rate                            : 48.0 KHz\r\nCompression mode                         : Lossy\r\nStream size                              : 138 MiB (5%)\r\nAlignment                                : Split accross interleaves\r\nInterleave, duration                     : 24 ms (0.58 video frame)\r\nInterleave, preload duration             : 1008 ms\r\n\r\n\r\nSCREENS\r\n \nhttp://boltimg.com/image/su77 \nhttp://boltimg.com/image/sBjf \nhttp://boltimg.com/image/sKHO \nhttp://boltimg.com/image/sPWS \nhttp://boltimg.com/image/s4Uz","torrent":{"xt":"urn:btih:0b5db4a0ff4406692d8b66d23ccd3ff96781d36a","amp;dn":"Risen.2016.720p.HD.CAM-KOMPENSAM","amp;tr":["udp%3A%2F%2Ftracker.leechers-paradise.org%3A6969","udp%3A%2F%2Fzer0day.ch%3A1337","udp%3A%2F%2Fopen.demonii.com%3A1337","udp%3A%2F%2Ftracker.coppersurfer.tk%3A6969","udp%3A%2F%2Fexodus.desync.com%3A6969"],"infoHash":"0b5db4a0ff4406692d8b66d23ccd3ff96781d36a","infoHashBuffer":{"type":"Buffer","data":[11,93,180,160,255,68,6,105,45,139,102,210,60,205,63,249,103,129,211,106]},"announce":[],"urlList":[]}}